<svg version="1.1" xmlns="http://www.w3.org/2000/svg" xmlns:xlink="http://www.w3.org/1999/xlink" width="1200pt" height="1200pt" viewBox="0,0,256,256"><g fill="#20c997" fill-rule="nonzero" stroke="none" stroke-width="1" stroke-linecap="butt" stroke-linejoin="miter" stroke-miterlimit="10" stroke-dasharray="" stroke-dashoffset="0" font-family="none" font-weight="none" font-size="none" text-anchor="none" style="mix-blend-mode: normal"><g transform="translate(-0.00011,0) scale(0.21333,0.21333)"><g><path d="M723.6,600c0,68.262 -55.34,123.6 -123.6,123.6c-68.26,0 -123.6,-55.34 -123.6,-123.6c0,-68.26 55.34,-123.6 123.6,-123.6c68.26,0 123.6,55.34 123.6,123.6"></path><path d="M567.6,219.6v181.2c0,6 4.8008,10.801 10.801,10.801h44.398c6,0 10.801,-4.8008 10.801,-10.801v-181.2c37.199,-13.199 64.801,-49.199 64.801,-91.199c0,-54 -44.398,-97.199 -97.199,-97.199c-52.801,0 -97.199,44.398 -97.199,97.199c-1.2031,41.996 25.195,76.797 63.598,91.199z"></path><path d="M266.4,363.6c14.398,0 28.801,-3.6016 42,-9.6016l128.4,128.4c3.6016,3.6016 10.801,3.6016 15.602,0l31.199,-31.199c3.6016,-3.6016 3.6016,-10.801 0,-15.602l-129.6,-128.4c6,-13.199 9.6016,-26.398 9.6016,-42c0,-26.398 -9.6016,-50.398 -28.801,-69.602c-37.199,-37.199 -100.8,-37.199 -138,0c-18,20.402 -28.801,44.402 -28.801,70.801c0,26.398 9.6016,50.398 28.801,69.602c19.199,18 43.199,27.602 69.598,27.602z"></path><path d="M219.6,632.4h181.2c6,0 10.801,-4.8008 10.801,-10.801v-44.398c0,-6 -4.8008,-10.801 -10.801,-10.801h-181.2c-13.199,-37.199 -49.199,-64.801 -91.199,-64.801c-54,0 -97.199,44.398 -97.199,97.199c0,52.801 44.398,97.199 97.199,97.199c41.996,1.2031 76.797,-25.195 91.199,-63.598z"></path><path d="M450,717.6c-3.6016,-3.6016 -10.801,-3.6016 -15.602,0l-127.2,128.4c-36,-16.801 -80.398,-10.801 -110.4,19.199c-38.398,38.398 -38.398,99.602 0,138c19.199,19.199 44.398,28.801 69.602,28.801c25.199,0 50.398,-9.6016 69.602,-28.801c18,-18 28.801,-43.199 28.801,-69.602c0,-14.398 -3.6016,-28.801 -9.6016,-42l128.4,-128.4c3.6016,-3.6016 3.6016,-10.801 0,-15.602z"></path><path d="M632.4,980.4v-181.2c0,-6 -4.8008,-10.801 -10.801,-10.801h-44.398c-6,0 -10.801,4.8008 -10.801,10.801v181.2c-37.199,13.199 -64.801,49.199 -64.801,91.199c0,54 44.398,97.199 97.199,97.199c52.801,0 97.199,-44.398 97.199,-97.199c1.2031,-41.996 -25.195,-76.797 -63.598,-91.199z"></path><path d="M892.8,846l-128.4,-128.4c-3.6016,-3.6016 -10.801,-3.6016 -15.602,0l-31.199,31.199c-3.6016,3.6016 -3.6016,10.801 0,15.602l128.4,128.4c-6,13.199 -9.6016,26.398 -9.6016,42c0,26.398 9.6016,50.398 28.801,69.602c19.199,19.199 43.199,28.801 69.602,28.801c26.398,0 50.398,-9.6016 69.602,-28.801c19.203,-19.203 27.602,-44.402 27.602,-70.801c0,-26.398 -9.6016,-50.398 -28.801,-69.602c-30,-28.801 -74.398,-34.801 -110.4,-18z"></path><path d="M1072.8,502.8c-42,0 -78,27.602 -91.199,64.801h-182.4c-6,0 -10.801,4.8008 -10.801,10.801v44.398c0,6 4.8008,10.801 10.801,10.801h181.2c13.199,37.199 49.199,64.801 91.199,64.801c54,0 97.199,-44.398 97.199,-97.199c0.00391,-52.805 -43.195,-98.402 -95.996,-98.402z"></path><path d="M750,482.4c3.6016,3.6016 10.801,3.6016 15.602,0l128.4,-128.4c13.199,6 26.398,9.6016 42,9.6016c26.398,0 50.398,-9.6016 69.602,-28.801c18,-18 28.801,-43.199 28.801,-69.602c0,-26.398 -9.6016,-50.398 -28.801,-69.602c-37.199,-37.199 -100.8,-37.199 -138,0c-18,18 -28.801,43.199 -28.801,69.602c0,14.398 3.6016,28.801 9.6016,42l-130.8,128.4c-3.6016,3.6016 -3.6016,10.801 0,15.602z"></path></g></g></g></svg>